<svg width="44" height="43" viewBox="0 0 44 43" fill="none" xmlns="http://www.w3.org/2000/svg">
<path d="M21.6176 0C9.6811 0 0 9.6793 0 21.6176C0 31.169 6.19346 39.2721 14.7847 42.131C15.8637 42.3309 16.2132 41.6608 16.2132 41.0915V37.0671C10.1999 38.3749 8.9479 34.5162 8.9479 34.5162C7.9643 32.0175 6.54654 31.3528 6.54654 31.3528C4.58474 30.0107 6.69607 30.0395 6.69607 30.0395C8.86684 30.1908 10.009 32.2679 10.009 32.2679C11.9365 35.5718 15.0657 34.6171 16.2997 34.064C16.4925 32.6679 17.0527 31.7131 17.6724 31.1744C12.8715 30.625 7.82379 28.7713 7.82379 20.4899C7.82379 18.1282 8.66868 16.2006 10.0504 14.6874C9.82702 14.1415 9.08662 11.9419 10.2612 8.96592C10.2612 8.96592 12.0771 8.38584 16.2078 11.1817C17.9318 10.7025 19.7801 10.4629 21.6176 10.4539C23.4551 10.4629 25.3053 10.7025 27.0329 11.1817C31.16 8.38584 32.9723 8.96592 32.9723 8.96592C34.1487 11.9437 33.4083 14.1433 33.1849 14.6874C34.572 16.2006 35.4097 18.13 35.4097 20.4899C35.4097 28.7929 30.353 30.6214 25.5394 31.1564C26.3141 31.8266 27.0221 33.1417 27.0221 35.1593V41.0915C27.0221 41.6662 27.3679 42.3418 28.465 42.1292C37.049 39.2666 43.2353 31.1654 43.2353 21.6176C43.2353 9.6793 33.556 0 21.6176 0Z" fill="white"/>
</svg>
