<svg width="1191" height="181" viewBox="0 0 1191 181" fill="none" xmlns="http://www.w3.org/2000/svg">
<path d="M0.647461 2.99999H42.6475C56.3141 2.99999 66.5641 6.66666 73.3975 14C80.2308 21.3333 83.6475 32.0833 83.6475 46.25V134.75C83.6475 148.917 80.2308 159.667 73.3975 167C66.5641 174.333 56.3141 178 42.6475 178H0.647461V2.99999ZM42.1475 153C46.6475 153 50.0641 151.667 52.3975 149C54.8975 146.333 56.1475 142 56.1475 136V45C56.1475 39 54.8975 34.6667 52.3975 32C50.0641 29.3333 46.6475 28 42.1475 28H28.1475V153H42.1475ZM102.21 2.99999H177.21V28H129.71V74.25H167.46V99.25H129.71V153H177.21V178H102.21V2.99999ZM185.78 2.99999H213.53L231.53 138.75H232.03L250.03 2.99999H275.28L248.78 178H212.28L185.78 2.99999ZM288.489 2.99999H363.489V28H315.989V74.25H353.739V99.25H315.989V153H363.489V178H288.489V2.99999ZM379.31 2.99999H406.81V153H452.06V178H379.31V2.99999ZM504.021 180.5C490.521 180.5 480.187 176.667 473.021 169C465.854 161.333 462.271 150.5 462.271 136.5V44.5C462.271 30.5 465.854 19.6667 473.021 12C480.187 4.33332 490.521 0.49999 504.021 0.49999C517.521 0.49999 527.854 4.33332 535.021 12C542.187 19.6667 545.771 30.5 545.771 44.5V136.5C545.771 150.5 542.187 161.333 535.021 169C527.854 176.667 517.521 180.5 504.021 180.5ZM504.021 155.5C513.521 155.5 518.271 149.75 518.271 138.25V42.75C518.271 31.25 513.521 25.5 504.021 25.5C494.521 25.5 489.771 31.25 489.771 42.75V138.25C489.771 149.75 494.521 155.5 504.021 155.5ZM564.368 2.99999H604.868C618.535 2.99999 628.785 6.66666 635.618 14C642.452 21.3333 645.868 32.0833 645.868 46.25V63.5C645.868 77.6667 642.452 88.4167 635.618 95.75C628.785 103.083 618.535 106.75 604.868 106.75H591.868V178H564.368V2.99999ZM604.868 81.75C609.368 81.75 612.701 80.5 614.868 78C617.201 75.5 618.368 71.25 618.368 65.25V44.5C618.368 38.5 617.201 34.25 614.868 31.75C612.701 29.25 609.368 28 604.868 28H591.868V81.75H604.868ZM660.804 2.99999H735.804V28H688.304V74.25H726.054V99.25H688.304V153H735.804V178H660.804V2.99999ZM751.624 2.99999H792.374C806.541 2.99999 816.874 6.33332 823.374 13C829.874 19.5 833.124 29.5833 833.124 43.25V54C833.124 72.1667 827.124 83.6667 815.124 88.5V89C821.791 91 826.457 95.0833 829.124 101.25C831.957 107.417 833.374 115.667 833.374 126V156.75C833.374 161.75 833.541 165.833 833.874 169C834.207 172 835.041 175 836.374 178H808.374C807.374 175.167 806.707 172.5 806.374 170C806.041 167.5 805.874 163 805.874 156.5V124.5C805.874 116.5 804.541 110.917 801.874 107.75C799.374 104.583 794.957 103 788.624 103H779.124V178H751.624V2.99999ZM789.124 78C794.624 78 798.707 76.5833 801.374 73.75C804.207 70.9167 805.624 66.1667 805.624 59.5V46C805.624 39.6667 804.457 35.0833 802.124 32.25C799.957 29.4167 796.457 28 791.624 28H779.124V78H789.124ZM853.675 151.5H880.175V178H853.675V151.5ZM900.794 2.99999H928.294V76.75L963.294 2.99999H990.794L958.044 67.25L991.294 178H962.544L939.294 100L928.294 122.25V178H900.794V2.99999ZM1004.31 2.99999H1046.31C1059.98 2.99999 1070.23 6.66666 1077.06 14C1083.89 21.3333 1087.31 32.0833 1087.31 46.25V134.75C1087.31 148.917 1083.89 159.667 1077.06 167C1070.23 174.333 1059.98 178 1046.31 178H1004.31V2.99999ZM1045.81 153C1050.31 153 1053.73 151.667 1056.06 149C1058.56 146.333 1059.81 142 1059.81 136V45C1059.81 39 1058.56 34.6667 1056.06 32C1053.73 29.3333 1050.31 28 1045.81 28H1031.81V153H1045.81ZM1105.87 2.99999H1133.37V74.25H1162.87V2.99999H1190.37V178H1162.87V99.25H1133.37V178H1105.87V2.99999Z" fill="#EFEFEA"/>
</svg>
