<svg width="42" height="42" viewBox="0 0 42 42" fill="none" xmlns="http://www.w3.org/2000/svg">
<g clip-path="url(#clip0_473_18)">
<path d="M21 0C9.40196 0 0 9.40196 0 21C0 32.598 9.40196 42 21 42C32.598 42 42 32.598 42 21C42 9.40196 32.598 0 21 0ZM11.9146 17.5183C11.1985 17.5185 10.4983 17.3063 9.90279 16.9085C9.30724 16.5108 8.84301 15.9454 8.56882 15.2838C8.29463 14.6222 8.2228 13.8941 8.3624 13.1917C8.50201 12.4893 8.84678 11.844 9.35312 11.3376C9.85946 10.8311 10.5046 10.4862 11.207 10.3464C11.9094 10.2066 12.6375 10.2782 13.2991 10.5523C13.9608 10.8263 14.5263 11.2904 14.9242 11.8858C15.3221 12.4813 15.5345 13.1814 15.5345 13.8975C15.5343 14.8576 15.1528 15.7783 14.4741 16.4572C13.7953 17.1362 12.8747 17.5178 11.9146 17.5183ZM21 35.6863C20.2841 35.6863 19.5842 35.474 18.9889 35.0762C18.3936 34.6785 17.9297 34.1131 17.6557 33.4517C17.3817 32.7902 17.31 32.0624 17.4497 31.3602C17.5894 30.658 17.9341 30.013 18.4404 29.5068C18.9466 29.0005 19.5916 28.6558 20.2938 28.5161C20.996 28.3764 21.7238 28.4481 22.3853 28.7221C23.0467 28.9961 23.6121 29.46 24.0098 30.0553C24.4076 30.6506 24.6199 31.3505 24.6199 32.0664C24.6199 33.0265 24.2385 33.9472 23.5596 34.626C22.8808 35.3049 21.96 35.6863 21 35.6863ZM21 26.6009C20.2841 26.6009 19.5842 26.3886 18.9889 25.9909C18.3936 25.5931 17.9297 25.0278 17.6557 24.3663C17.3817 23.7049 17.31 22.977 17.4497 22.2748C17.5894 21.5727 17.9341 20.9277 18.4404 20.4214C18.9466 19.9152 19.5916 19.5704 20.2938 19.4307C20.996 19.2911 21.7238 19.3627 22.3853 19.6367C23.0467 19.9107 23.6121 20.3747 24.0098 20.97C24.4076 21.5652 24.6199 22.2651 24.6199 22.981C24.6202 23.4566 24.5269 23.9277 24.3451 24.3672C24.1634 24.8067 23.8968 25.206 23.5606 25.5425C23.2244 25.8789 22.8253 26.1458 22.3859 26.3279C21.9465 26.5099 21.4756 26.6037 21 26.6037V26.6009ZM21 17.5156C20.2838 17.5157 19.5837 17.3035 18.9882 16.9058C18.3926 16.508 17.9284 15.9426 17.6542 15.281C17.38 14.6194 17.3082 13.8914 17.4478 13.189C17.5874 12.4865 17.9321 11.8413 18.4385 11.3348C18.9448 10.8283 19.59 10.4834 20.2924 10.3436C20.9948 10.2038 21.7228 10.2755 22.3845 10.5495C23.0462 10.8235 23.6117 11.2876 24.0096 11.8831C24.4075 12.4785 24.6199 13.1786 24.6199 13.8948C24.6202 14.3704 24.5269 14.8415 24.3451 15.281C24.1634 15.7206 23.8968 16.12 23.5607 16.4565C23.2245 16.793 22.8253 17.06 22.386 17.2422C21.9466 17.4243 21.4756 17.5182 21 17.5183V17.5156ZM30.0854 17.5156C29.3692 17.5156 28.6692 17.3032 28.0738 16.9053C27.4783 16.5075 27.0142 15.942 26.7402 15.2804C26.4661 14.6188 26.3944 13.8908 26.5341 13.1884C26.6739 12.486 27.0187 11.8409 27.5251 11.3345C28.0315 10.8281 28.6766 10.4833 29.379 10.3436C30.0813 10.2039 30.8094 10.2756 31.471 10.5496C32.1326 10.8237 32.6981 11.2877 33.0959 11.8832C33.4938 12.4786 33.7061 13.1786 33.7061 13.8948C33.7065 14.3705 33.6131 14.8416 33.4313 15.2812C33.2495 15.7208 32.9829 16.1203 32.6466 16.4568C32.3104 16.7933 31.9111 17.0603 31.4716 17.2424C31.0321 17.4246 30.5611 17.5183 30.0854 17.5183V17.5156Z" fill="white"/>
</g>
<defs>
<clipPath id="clip0_473_18">
<rect width="42" height="42" fill="white"/>
</clipPath>
</defs>
</svg>
